<svg xmlns="http://www.w3.org/2000/svg" witdh="640" height="640" viewBox="0 0 640 640"><rect x="0" y="0" width="40" height="40" fill="rgb(0,0,0)"/><rect x="40" y="0" width="40" height="40" fill="rgb(0,0,8)"/><rect x="80" y="0" width="40" height="40" fill="rgb(0,0,16)"/><rect x="120" y="0" width="40" height="40" fill="rgb(0,0,24)"/><rect x="160" y="0" width="40" height="40" fill="rgb(0,0,32)"/><rect x="200" y="0" width="40" height="40" fill="rgb(0,0,40)"/><rect x="240" y="0" width="40" height="40" fill="rgb(0,0,48)"/><rect x="280" y="0" width="40" height="40" fill="rgb(0,0,56)"/><rect x="320" y="0" width="40" height="40" fill="rgb(0,0,64)"/><rect x="360" y="0" width="40" height="40" fill="rgb(0,0,72)"/><rect x="400" y="0" width="40" height="40" fill="rgb(0,0,80)"/><rect x="440" y="0" width="40" height="40" fill="rgb(0,0,88)"/><rect x="480" y="0" width="40" height="40" fill="rgb(0,0,96)"/><rect x="520" y="0" width="40" height="40" fill="rgb(0,0,104)"/><rect x="560" y="0" width="40" height="40" fill="rgb(0,0,112)"/><rect x="600" y="0" width="40" height="40" fill="rgb(0,0,120)"/><rect x="0" y="40" width="40" height="40" fill="rgb(0,0,8)"/><rect x="40" y="40" width="40" height="40" fill="rgb(0,0,16)"/><rect x="80" y="40" width="40" height="40" fill="rgb(0,0,24)"/><rect x="120" y="40" width="40" height="40" fill="rgb(0,0,32)"/><rect x="160" y="40" width="40" height="40" fill="rgb(0,0,40)"/><rect x="200" y="40" width="40" height="40" fill="rgb(0,0,48)"/><rect x="240" y="40" width="40" height="40" fill="rgb(0,0,56)"/><rect x="280" y="40" width="40" height="40" fill="rgb(0,0,64)"/><rect x="320" y="40" width="40" height="40" fill="rgb(0,0,72)"/><rect x="360" y="40" width="40" height="40" fill="rgb(0,0,80)"/><rect x="400" y="40" width="40" height="40" fill="rgb(0,0,88)"/><rect x="440" y="40" width="40" height="40" fill="rgb(0,0,96)"/><rect x="480" y="40" width="40" height="40" fill="rgb(0,0,104)"/><rect x="520" y="40" width="40" height="40" fill="rgb(0,0,112)"/><rect x="560" y="40" width="40" height="40" fill="rgb(0,0,120)"/><rect x="600" y="40" width="40" height="40" fill="rgb(0,0,128)"/><rect x="0" y="80" width="40" height="40" fill="rgb(0,0,16)"/><rect x="40" y="80" width="40" height="40" fill="rgb(0,0,24)"/><rect x="80" y="80" width="40" height="40" fill="rgb(0,0,32)"/><rect x="120" y="80" width="40" height="40" fill="rgb(0,0,40)"/><rect x="160" y="80" width="40" height="40" fill="rgb(0,0,48)"/><rect x="200" y="80" width="40" height="40" fill="rgb(0,0,56)"/><rect x="240" y="80" width="40" height="40" fill="rgb(0,0,64)"/><rect x="280" y="80" width="40" height="40" fill="rgb(0,0,72)"/><rect x="320" y="80" width="40" height="40" fill="rgb(0,0,80)"/><rect x="360" y="80" width="40" height="40" fill="rgb(0,0,88)"/><rect x="400" y="80" width="40" height="40" fill="rgb(0,0,96)"/><rect x="440" y="80" width="40" height="40" fill="rgb(0,0,104)"/><rect x="480" y="80" width="40" height="40" fill="rgb(0,0,112)"/><rect x="520" y="80" width="40" height="40" fill="rgb(0,0,120)"/><rect x="560" y="80" width="40" height="40" fill="rgb(0,0,128)"/><rect x="600" y="80" width="40" height="40" fill="rgb(0,0,136)"/><rect x="0" y="120" width="40" height="40" fill="rgb(0,0,24)"/><rect x="40" y="120" width="40" height="40" fill="rgb(0,0,32)"/><rect x="80" y="120" width="40" height="40" fill="rgb(0,0,40)"/><rect x="120" y="120" width="40" height="40" fill="rgb(0,0,48)"/><rect x="160" y="120" width="40" height="40" fill="rgb(0,0,56)"/><rect x="200" y="120" width="40" height="40" fill="rgb(0,0,64)"/><rect x="240" y="120" width="40" height="40" fill="rgb(0,0,72)"/><rect x="280" y="120" width="40" height="40" fill="rgb(0,0,80)"/><rect x="320" y="120" width="40" height="40" fill="rgb(0,0,88)"/><rect x="360" y="120" width="40" height="40" fill="rgb(0,0,96)"/><rect x="400" y="120" width="40" height="40" fill="rgb(0,0,104)"/><rect x="440" y="120" width="40" height="40" fill="rgb(0,0,112)"/><rect x="480" y="120" width="40" height="40" fill="rgb(0,0,120)"/><rect x="520" y="120" width="40" height="40" fill="rgb(0,0,128)"/><rect x="560" y="120" width="40" height="40" fill="rgb(0,0,136)"/><rect x="600" y="120" width="40" height="40" fill="rgb(0,0,144)"/><rect x="0" y="160" width="40" height="40" fill="rgb(0,0,32)"/><rect x="40" y="160" width="40" height="40" fill="rgb(0,0,40)"/><rect x="80" y="160" width="40" height="40" fill="rgb(0,0,48)"/><rect x="120" y="160" width="40" height="40" fill="rgb(0,0,56)"/><rect x="160" y="160" width="40" height="40" fill="rgb(0,0,64)"/><rect x="200" y="160" width="40" height="40" fill="rgb(0,0,72)"/><rect x="240" y="160" width="40" height="40" fill="rgb(0,0,80)"/><rect x="280" y="160" width="40" height="40" fill="rgb(0,0,88)"/><rect x="320" y="160" width="40" height="40" fill="rgb(0,0,96)"/><rect x="360" y="160" width="40" height="40" fill="rgb(0,0,104)"/><rect x="400" y="160" width="40" height="40" fill="rgb(0,0,112)"/><rect x="440" y="160" width="40" height="40" fill="rgb(0,0,120)"/><rect x="480" y="160" width="40" height="40" fill="rgb(0,0,128)"/><rect x="520" y="160" width="40" height="40" fill="rgb(0,0,136)"/><rect x="560" y="160" width="40" height="40" fill="rgb(0,0,144)"/><rect x="600" y="160" width="40" height="40" fill="rgb(0,0,152)"/><rect x="0" y="200" width="40" height="40" fill="rgb(0,0,40)"/><rect x="40" y="200" width="40" height="40" fill="rgb(0,0,48)"/><rect x="80" y="200" width="40" height="40" fill="rgb(0,0,56)"/><rect x="120" y="200" width="40" height="40" fill="rgb(0,0,64)"/><rect x="160" y="200" width="40" height="40" fill="rgb(0,0,72)"/><rect x="200" y="200" width="40" height="40" fill="rgb(0,0,80)"/><rect x="240" y="200" width="40" height="40" fill="rgb(0,0,88)"/><rect x="280" y="200" width="40" height="40" fill="rgb(0,0,96)"/><rect x="320" y="200" width="40" height="40" fill="rgb(0,0,104)"/><rect x="360" y="200" width="40" height="40" fill="rgb(0,0,112)"/><rect x="400" y="200" width="40" height="40" fill="rgb(0,0,120)"/><rect x="440" y="200" width="40" height="40" fill="rgb(0,0,128)"/><rect x="480" y="200" width="40" height="40" fill="rgb(0,0,136)"/><rect x="520" y="200" width="40" height="40" fill="rgb(0,0,144)"/><rect x="560" y="200" width="40" height="40" fill="rgb(0,0,152)"/><rect x="600" y="200" width="40" height="40" fill="rgb(0,0,160)"/><rect x="0" y="240" width="40" height="40" fill="rgb(0,0,48)"/><rect x="40" y="240" width="40" height="40" fill="rgb(0,0,56)"/><rect x="80" y="240" width="40" height="40" fill="rgb(0,0,64)"/><rect x="120" y="240" width="40" height="40" fill="rgb(0,0,72)"/><rect x="160" y="240" width="40" height="40" fill="rgb(0,0,80)"/><rect x="200" y="240" width="40" height="40" fill="rgb(0,0,88)"/><rect x="240" y="240" width="40" height="40" fill="rgb(0,0,96)"/><rect x="280" y="240" width="40" height="40" fill="rgb(0,0,104)"/><rect x="320" y="240" width="40" height="40" fill="rgb(0,0,112)"/><rect x="360" y="240" width="40" height="40" fill="rgb(0,0,120)"/><rect x="400" y="240" width="40" height="40" fill="rgb(0,0,128)"/><rect x="440" y="240" width="40" height="40" fill="rgb(0,0,136)"/><rect x="480" y="240" width="40" height="40" fill="rgb(0,0,144)"/><rect x="520" y="240" width="40" height="40" fill="rgb(0,0,152)"/><rect x="560" y="240" width="40" height="40" fill="rgb(0,0,160)"/><rect x="600" y="240" width="40" height="40" fill="rgb(0,0,168)"/><rect x="0" y="280" width="40" height="40" fill="rgb(0,0,56)"/><rect x="40" y="280" width="40" height="40" fill="rgb(0,0,64)"/><rect x="80" y="280" width="40" height="40" fill="rgb(0,0,72)"/><rect x="120" y="280" width="40" height="40" fill="rgb(0,0,80)"/><rect x="160" y="280" width="40" height="40" fill="rgb(0,0,88)"/><rect x="200" y="280" width="40" height="40" fill="rgb(0,0,96)"/><rect x="240" y="280" width="40" height="40" fill="rgb(0,0,104)"/><rect x="280" y="280" width="40" height="40" fill="rgb(0,0,112)"/><rect x="320" y="280" width="40" height="40" fill="rgb(0,0,120)"/><rect x="360" y="280" width="40" height="40" fill="rgb(0,0,128)"/><rect x="400" y="280" width="40" height="40" fill="rgb(0,0,136)"/><rect x="440" y="280" width="40" height="40" fill="rgb(0,0,144)"/><rect x="480" y="280" width="40" height="40" fill="rgb(0,0,152)"/><rect x="520" y="280" width="40" height="40" fill="rgb(0,0,160)"/><rect x="560" y="280" width="40" height="40" fill="rgb(0,0,168)"/><rect x="600" y="280" width="40" height="40" fill="rgb(0,0,176)"/><rect x="0" y="320" width="40" height="40" fill="rgb(0,0,64)"/><rect x="40" y="320" width="40" height="40" fill="rgb(0,0,72)"/><rect x="80" y="320" width="40" height="40" fill="rgb(0,0,80)"/><rect x="120" y="320" width="40" height="40" fill="rgb(0,0,88)"/><rect x="160" y="320" width="40" height="40" fill="rgb(0,0,96)"/><rect x="200" y="320" width="40" height="40" fill="rgb(0,0,104)"/><rect x="240" y="320" width="40" height="40" fill="rgb(0,0,112)"/><rect x="280" y="320" width="40" height="40" fill="rgb(0,0,120)"/><rect x="320" y="320" width="40" height="40" fill="rgb(0,0,128)"/><rect x="360" y="320" width="40" height="40" fill="rgb(0,0,136)"/><rect x="400" y="320" width="40" height="40" fill="rgb(0,0,144)"/><rect x="440" y="320" width="40" height="40" fill="rgb(0,0,152)"/><rect x="480" y="320" width="40" height="40" fill="rgb(0,0,160)"/><rect x="520" y="320" width="40" height="40" fill="rgb(0,0,168)"/><rect x="560" y="320" width="40" height="40" fill="rgb(0,0,176)"/><rect x="600" y="320" width="40" height="40" fill="rgb(0,0,184)"/><rect x="0" y="360" width="40" height="40" fill="rgb(0,0,72)"/><rect x="40" y="360" width="40" height="40" fill="rgb(0,0,80)"/><rect x="80" y="360" width="40" height="40" fill="rgb(0,0,88)"/><rect x="120" y="360" width="40" height="40" fill="rgb(0,0,96)"/><rect x="160" y="360" width="40" height="40" fill="rgb(0,0,104)"/><rect x="200" y="360" width="40" height="40" fill="rgb(0,0,112)"/><rect x="240" y="360" width="40" height="40" fill="rgb(0,0,120)"/><rect x="280" y="360" width="40" height="40" fill="rgb(0,0,128)"/><rect x="320" y="360" width="40" height="40" fill="rgb(0,0,136)"/><rect x="360" y="360" width="40" height="40" fill="rgb(0,0,144)"/><rect x="400" y="360" width="40" height="40" fill="rgb(0,0,152)"/><rect x="440" y="360" width="40" height="40" fill="rgb(0,0,160)"/><rect x="480" y="360" width="40" height="40" fill="rgb(0,0,168)"/><rect x="520" y="360" width="40" height="40" fill="rgb(0,0,176)"/><rect x="560" y="360" width="40" height="40" fill="rgb(0,0,184)"/><rect x="600" y="360" width="40" height="40" fill="rgb(0,0,192)"/><rect x="0" y="400" width="40" height="40" fill="rgb(0,0,80)"/><rect x="40" y="400" width="40" height="40" fill="rgb(0,0,88)"/><rect x="80" y="400" width="40" height="40" fill="rgb(0,0,96)"/><rect x="120" y="400" width="40" height="40" fill="rgb(0,0,104)"/><rect x="160" y="400" width="40" height="40" fill="rgb(0,0,112)"/><rect x="200" y="400" width="40" height="40" fill="rgb(0,0,120)"/><rect x="240" y="400" width="40" height="40" fill="rgb(0,0,128)"/><rect x="280" y="400" width="40" height="40" fill="rgb(0,0,136)"/><rect x="320" y="400" width="40" height="40" fill="rgb(0,0,144)"/><rect x="360" y="400" width="40" height="40" fill="rgb(0,0,152)"/><rect x="400" y="400" width="40" height="40" fill="rgb(0,0,160)"/><rect x="440" y="400" width="40" height="40" fill="rgb(0,0,168)"/><rect x="480" y="400" width="40" height="40" fill="rgb(0,0,176)"/><rect x="520" y="400" width="40" height="40" fill="rgb(0,0,184)"/><rect x="560" y="400" width="40" height="40" fill="rgb(0,0,192)"/><rect x="600" y="400" width="40" height="40" fill="rgb(0,0,200)"/><rect x="0" y="440" width="40" height="40" fill="rgb(0,0,88)"/><rect x="40" y="440" width="40" height="40" fill="rgb(0,0,96)"/><rect x="80" y="440" width="40" height="40" fill="rgb(0,0,104)"/><rect x="120" y="440" width="40" height="40" fill="rgb(0,0,112)"/><rect x="160" y="440" width="40" height="40" fill="rgb(0,0,120)"/><rect x="200" y="440" width="40" height="40" fill="rgb(0,0,128)"/><rect x="240" y="440" width="40" height="40" fill="rgb(0,0,136)"/><rect x="280" y="440" width="40" height="40" fill="rgb(0,0,144)"/><rect x="320" y="440" width="40" height="40" fill="rgb(0,0,152)"/><rect x="360" y="440" width="40" height="40" fill="rgb(0,0,160)"/><rect x="400" y="440" width="40" height="40" fill="rgb(0,0,168)"/><rect x="440" y="440" width="40" height="40" fill="rgb(0,0,176)"/><rect x="480" y="440" width="40" height="40" fill="rgb(0,0,184)"/><rect x="520" y="440" width="40" height="40" fill="rgb(0,0,192)"/><rect x="560" y="440" width="40" height="40" fill="rgb(0,0,200)"/><rect x="600" y="440" width="40" height="40" fill="rgb(0,0,208)"/><rect x="0" y="480" width="40" height="40" fill="rgb(0,0,96)"/><rect x="40" y="480" width="40" height="40" fill="rgb(0,0,104)"/><rect x="80" y="480" width="40" height="40" fill="rgb(0,0,112)"/><rect x="120" y="480" width="40" height="40" fill="rgb(0,0,120)"/><rect x="160" y="480" width="40" height="40" fill="rgb(0,0,128)"/><rect x="200" y="480" width="40" height="40" fill="rgb(0,0,136)"/><rect x="240" y="480" width="40" height="40" fill="rgb(0,0,144)"/><rect x="280" y="480" width="40" height="40" fill="rgb(0,0,152)"/><rect x="320" y="480" width="40" height="40" fill="rgb(0,0,160)"/><rect x="360" y="480" width="40" height="40" fill="rgb(0,0,168)"/><rect x="400" y="480" width="40" height="40" fill="rgb(0,0,176)"/><rect x="440" y="480" width="40" height="40" fill="rgb(0,0,184)"/><rect x="480" y="480" width="40" height="40" fill="rgb(0,0,192)"/><rect x="520" y="480" width="40" height="40" fill="rgb(0,0,200)"/><rect x="560" y="480" width="40" height="40" fill="rgb(0,0,208)"/><rect x="600" y="480" width="40" height="40" fill="rgb(0,0,216)"/><rect x="0" y="520" width="40" height="40" fill="rgb(0,0,104)"/><rect x="40" y="520" width="40" height="40" fill="rgb(0,0,112)"/><rect x="80" y="520" width="40" height="40" fill="rgb(0,0,120)"/><rect x="120" y="520" width="40" height="40" fill="rgb(0,0,128)"/><rect x="160" y="520" width="40" height="40" fill="rgb(0,0,136)"/><rect x="200" y="520" width="40" height="40" fill="rgb(0,0,144)"/><rect x="240" y="520" width="40" height="40" fill="rgb(0,0,152)"/><rect x="280" y="520" width="40" height="40" fill="rgb(0,0,160)"/><rect x="320" y="520" width="40" height="40" fill="rgb(0,0,168)"/><rect x="360" y="520" width="40" height="40" fill="rgb(0,0,176)"/><rect x="400" y="520" width="40" height="40" fill="rgb(0,0,184)"/><rect x="440" y="520" width="40" height="40" fill="rgb(0,0,192)"/><rect x="480" y="520" width="40" height="40" fill="rgb(0,0,200)"/><rect x="520" y="520" width="40" height="40" fill="rgb(0,0,208)"/><rect x="560" y="520" width="40" height="40" fill="rgb(0,0,216)"/><rect x="600" y="520" width="40" height="40" fill="rgb(0,0,224)"/><rect x="0" y="560" width="40" height="40" fill="rgb(0,0,112)"/><rect x="40" y="560" width="40" height="40" fill="rgb(0,0,120)"/><rect x="80" y="560" width="40" height="40" fill="rgb(0,0,128)"/><rect x="120" y="560" width="40" height="40" fill="rgb(0,0,136)"/><rect x="160" y="560" width="40" height="40" fill="rgb(0,0,144)"/><rect x="200" y="560" width="40" height="40" fill="rgb(0,0,152)"/><rect x="240" y="560" width="40" height="40" fill="rgb(0,0,160)"/><rect x="280" y="560" width="40" height="40" fill="rgb(0,0,168)"/><rect x="320" y="560" width="40" height="40" fill="rgb(0,0,176)"/><rect x="360" y="560" width="40" height="40" fill="rgb(0,0,184)"/><rect x="400" y="560" width="40" height="40" fill="rgb(0,0,192)"/><rect x="440" y="560" width="40" height="40" fill="rgb(0,0,200)"/><rect x="480" y="560" width="40" height="40" fill="rgb(0,0,208)"/><rect x="520" y="560" width="40" height="40" fill="rgb(0,0,216)"/><rect x="560" y="560" width="40" height="40" fill="rgb(0,0,224)"/><rect x="600" y="560" width="40" height="40" fill="rgb(0,0,232)"/><rect x="0" y="600" width="40" height="40" fill="rgb(0,0,120)"/><rect x="40" y="600" width="40" height="40" fill="rgb(0,0,128)"/><rect x="80" y="600" width="40" height="40" fill="rgb(0,0,136)"/><rect x="120" y="600" width="40" height="40" fill="rgb(0,0,144)"/><rect x="160" y="600" width="40" height="40" fill="rgb(0,0,152)"/><rect x="200" y="600" width="40" height="40" fill="rgb(0,0,160)"/><rect x="240" y="600" width="40" height="40" fill="rgb(0,0,168)"/><rect x="280" y="600" width="40" height="40" fill="rgb(0,0,176)"/><rect x="320" y="600" width="40" height="40" fill="rgb(0,0,184)"/><rect x="360" y="600" width="40" height="40" fill="rgb(0,0,192)"/><rect x="400" y="600" width="40" height="40" fill="rgb(0,0,200)"/><rect x="440" y="600" width="40" height="40" fill="rgb(0,0,208)"/><rect x="480" y="600" width="40" height="40" fill="rgb(0,0,216)"/><rect x="520" y="600" width="40" height="40" fill="rgb(0,0,224)"/><rect x="560" y="600" width="40" height="40" fill="rgb(0,0,232)"/><rect x="600" y="600" width="40" height="40" fill="rgb(0,0,240)"/></svg>